<?xml version="1.0" encoding="UTF-8" standalone="no"?>
<!-- Created with Inkscape (http://www.inkscape.org/) -->

<svg
   width="166.95653mm"
   height="72.242912mm"
   viewBox="0 0 166.95653 72.242912"
   version="1.1"
   id="svg1"
   inkscape:export-filename="bitmap.svg"
   inkscape:export-xdpi="96"
   inkscape:export-ydpi="96"
   inkscape:version="1.4.3 (0d15f75042, 2025-12-25)"
   sodipodi:docname="logo.svg"
   xmlns:inkscape="http://www.inkscape.org/namespaces/inkscape"
   xmlns:sodipodi="http://sodipodi.sourceforge.net/DTD/sodipodi-0.dtd"
   xmlns:xlink="http://www.w3.org/1999/xlink"
   xmlns="http://www.w3.org/2000/svg"
   xmlns:svg="http://www.w3.org/2000/svg">
  <sodipodi:namedview
     id="namedview1"
     pagecolor="#ffffff"
     bordercolor="#000000"
     borderopacity="0.25"
     inkscape:showpageshadow="2"
     inkscape:pageopacity="0.0"
     inkscape:pagecheckerboard="0"
     inkscape:deskcolor="#d1d1d1"
     inkscape:document-units="mm"
     showguides="false"
     inkscape:zoom="0.64"
     inkscape:cx="639.0625"
     inkscape:cy="299.21875"
     inkscape:window-width="2560"
     inkscape:window-height="1379"
     inkscape:window-x="0"
     inkscape:window-y="0"
     inkscape:window-maximized="0"
     inkscape:current-layer="layer1" />
  <defs
     id="defs1">
    <linearGradient
       id="linearGradient54"
       inkscape:collect="always">
      <stop
         style="stop-color:#667eea;stop-opacity:1;"
         offset="0"
         id="stop54" />
      <stop
         style="stop-color:#764ba2;stop-opacity:1;"
         offset="1"
         id="stop55" />
    </linearGradient>
    <linearGradient
       id="linearGradient51"
       inkscape:collect="always">
      <stop
         style="stop-color:#667eea;stop-opacity:1;"
         offset="0"
         id="stop51" />
      <stop
         style="stop-color:#764ba2;stop-opacity:1;"
         offset="1"
         id="stop52" />
    </linearGradient>
    <rect
       x="311.71875"
       y="469.53125"
       width="244.53125"
       height="36.71875"
       id="rect6" />
    <rect
       x="105.46875"
       y="487.5"
       width="510.15625"
       height="78.125"
       id="rect5" />
    <rect
       x="192.1875"
       y="492.96875"
       width="435.15625"
       height="178.125"
       id="rect4" />
    <rect
       x="128.71553"
       y="445.25629"
       width="550.7699"
       height="185.61552"
       id="rect2" />
    <rect
       x="128.71553"
       y="445.25629"
       width="550.7699"
       height="185.61552"
       id="rect2-2" />
    <linearGradient
       inkscape:collect="always"
       xlink:href="#linearGradient51"
       id="linearGradient52"
       x1="140.8504"
       y1="174.42157"
       x2="64.954895"
       y2="98.526062"
       gradientUnits="userSpaceOnUse" />
    <linearGradient
       inkscape:collect="always"
       xlink:href="#linearGradient54"
       id="linearGradient55"
       x1="23.220734"
       y1="142.07047"
       x2="190.17726"
       y2="142.07047"
       gradientUnits="userSpaceOnUse" />
  </defs>
  <g
     inkscape:label="Layer 1"
     inkscape:groupmode="layer"
     id="layer1"
     transform="translate(-23.220734,-105.94901)">
    <path
       id="rect1"
       style="opacity:1;fill:none;stroke:url(#linearGradient55);stroke-width:1.5;stroke-linejoin:round"
       d="m 189.42726,121.44371 v 41.09821 c 0,8.2546 -6.6454,14.9 -14.9,14.9 H 38.870733 c -8.2546,0 -14.899999,-6.6454 -14.899999,-14.9 v -40.94291 c 0,-8.2546 6.645399,-14.9 14.899999,-14.9 H 174.52726 Z"
       sodipodi:nodetypes="csssssscc" />
    <g
       id="g49">
      <path
         id="rect3-10-3"
         style="fill:url(#linearGradient52);stroke-width:0.391039;stroke-linejoin:round"
         d="m 49.236413,110.01212 v 15.58406 h 10.369393 v -15.58406 z m 12.458671,0 v 15.58406 h 10.369393 v -15.58406 z m 37.214783,0 v 15.58406 h 10.369393 v -15.58406 z m 24.550953,0 v 15.58406 h 10.3694 v -15.58406 z m 12.20081,0 v 15.58406 h 10.36939 V 110.01212 Z M 73.018941,128.6053 v 15.58355 H 83.388334 V 128.6053 Z m 36.575029,0 v 15.58355 h 10.36939 V 128.6053 Z m -55.914417,1.3839 c -0.918397,0 -1.636467,0.0778 -2.153874,0.23306 -0.517407,0.14228 -0.911751,0.42013 -1.18339,0.83406 -0.271639,0.41392 -0.497935,1.01549 -0.679028,1.80454 -0.129352,0.56914 -0.232965,1.16453 -0.310576,1.78542 -0.07761,0.62089 -0.116272,1.33225 -0.116272,2.13423 0,0.80199 0.03866,1.51335 0.116272,2.13424 0.07761,0.62089 0.181224,1.21576 0.310576,1.7849 0.181093,0.78905 0.407389,1.39062 0.679028,1.80455 0.271639,0.41392 0.665983,0.69847 1.18339,0.85369 0.517407,0.14229 1.235477,0.21342 2.153874,0.21342 0.918399,0 1.636467,-0.0711 2.153874,-0.21342 0.517406,-0.15522 0.911751,-0.43977 1.18339,-0.85369 0.271639,-0.41393 0.497935,-1.0155 0.679028,-1.80455 0.142286,-0.56914 0.245899,-1.16401 0.310576,-1.7849 0.07761,-0.62089 0.116271,-1.33225 0.116271,-2.13424 0,-0.80198 -0.03866,-1.51334 -0.116271,-2.13423 -0.06468,-0.62089 -0.16829,-1.21628 -0.310576,-1.78542 -0.181093,-0.78905 -0.407389,-1.39062 -0.679028,-1.80454 -0.271639,-0.41393 -0.665984,-0.69178 -1.18339,-0.83406 -0.504473,-0.15522 -1.222541,-0.23306 -2.153874,-0.23306 z m 12.305709,0 c -0.918399,0 -1.636467,0.0778 -2.153874,0.23306 -0.517407,0.14228 -0.911751,0.42013 -1.18339,0.83406 -0.271639,0.41392 -0.497937,1.01549 -0.679029,1.80454 -0.129353,0.56914 -0.232964,1.16453 -0.310575,1.78542 -0.07761,0.62089 -0.116272,1.33225 -0.116272,2.13423 0,0.80199 0.03866,1.51335 0.116272,2.13424 0.07761,0.62089 0.181222,1.21576 0.310575,1.7849 0.181092,0.78905 0.40739,1.39062 0.679029,1.80455 0.271639,0.41392 0.665983,0.69847 1.18339,0.85369 0.517407,0.14229 1.235475,0.21342 2.153874,0.21342 0.918397,0 1.636465,-0.0711 2.153873,-0.21342 0.517407,-0.15522 0.911752,-0.43977 1.183391,-0.85369 0.271639,-0.41393 0.497937,-1.0155 0.679028,-1.80455 0.142288,-0.56914 0.245901,-1.16401 0.310575,-1.7849 0.07761,-0.62089 0.116272,-1.33225 0.116272,-2.13424 0,-0.80198 -0.03866,-1.51334 -0.116272,-2.13423 -0.06467,-0.62089 -0.168287,-1.21628 -0.310575,-1.78542 -0.181091,-0.78905 -0.407389,-1.39062 -0.679028,-1.80454 -0.271639,-0.41393 -0.665984,-0.69178 -1.183391,-0.83406 -0.504472,-0.15522 -1.22254,-0.23306 -2.153873,-0.23306 z m 24.611417,0 c -0.918397,0 -1.63595,0.0778 -2.153357,0.23306 -0.517408,0.14228 -0.91227,0.42013 -1.183907,0.83406 -0.271639,0.41392 -0.497935,1.01549 -0.679028,1.80454 -0.129351,0.56914 -0.232447,1.16453 -0.310059,1.78542 -0.07761,0.62089 -0.116788,1.33225 -0.116788,2.13423 0,0.80199 0.03918,1.51335 0.116788,2.13424 0.07761,0.62089 0.180708,1.21576 0.310059,1.7849 0.181093,0.78905 0.407389,1.39062 0.679028,1.80455 0.271637,0.41392 0.666499,0.69847 1.183907,0.85369 0.517407,0.14229 1.23496,0.21342 2.153357,0.21342 0.918399,0 1.636467,-0.0711 2.153874,-0.21342 0.517407,-0.15522 0.911751,-0.43977 1.18339,-0.85369 0.271639,-0.41393 0.498454,-1.0155 0.679545,-1.80455 0.142288,-0.56914 0.245382,-1.16401 0.310059,-1.7849 0.07761,-0.62089 0.116789,-1.33225 0.116789,-2.13424 0,-0.80198 -0.03918,-1.51334 -0.116789,-2.13423 -0.06468,-0.62089 -0.167771,-1.21628 -0.310059,-1.78542 -0.181091,-0.78905 -0.407906,-1.39062 -0.679545,-1.80454 -0.271639,-0.41393 -0.665983,-0.69178 -1.18339,-0.83406 -0.504472,-0.15522 -1.22254,-0.23306 -2.153874,-0.23306 z m 12.306221,0 c -0.91839,0 -1.63646,0.0778 -2.15387,0.23306 -0.51741,0.14228 -0.912267,0.42013 -1.183906,0.83406 -0.271639,0.41392 -0.497935,1.01549 -0.679028,1.80454 -0.129351,0.56914 -0.232448,1.16453 -0.310059,1.78542 -0.07761,0.62089 -0.116789,1.33225 -0.116789,2.13423 0,0.80199 0.03918,1.51335 0.116789,2.13424 0.07761,0.62089 0.180708,1.21576 0.310059,1.7849 0.181093,0.78905 0.407389,1.39062 0.679028,1.80455 0.271639,0.41392 0.666496,0.69847 1.183906,0.85369 0.51741,0.14229 1.23548,0.21342 2.15387,0.21342 0.9184,0 1.63596,-0.0711 2.15336,-0.21342 0.51741,-0.15522 0.91227,-0.43977 1.18391,-0.85369 0.27164,-0.41393 0.49793,-1.0155 0.67903,-1.80455 0.14228,-0.56914 0.24538,-1.16401 0.31006,-1.7849 0.0776,-0.62089 0.11678,-1.33225 0.11678,-2.13424 0,-0.80198 -0.0392,-1.51334 -0.11678,-2.13423 -0.0647,-0.62089 -0.16778,-1.21628 -0.31006,-1.78542 -0.1811,-0.78905 -0.40739,-1.39062 -0.67903,-1.80454 -0.27164,-0.41393 -0.6665,-0.69178 -1.18391,-0.83406 -0.50447,-0.15522 -1.22202,-0.23306 -2.15336,-0.23306 z m 24.61142,0 c -0.91839,0 -1.63646,0.0778 -2.15387,0.23306 -0.51741,0.14228 -0.91175,0.42013 -1.18339,0.83406 -0.27164,0.41392 -0.49794,1.01549 -0.67903,1.80454 -0.12935,0.56914 -0.23296,1.16453 -0.31058,1.78542 -0.0776,0.62089 -0.11627,1.33225 -0.11627,2.13423 0,0.80199 0.0387,1.51335 0.11627,2.13424 0.0776,0.62089 0.18123,1.21576 0.31058,1.7849 0.18109,0.78905 0.40739,1.39062 0.67903,1.80455 0.27164,0.41392 0.66598,0.69847 1.18339,0.85369 0.51741,0.14229 1.23548,0.21342 2.15387,0.21342 0.9184,0 1.63595,-0.0711 2.15336,-0.21342 0.51741,-0.15522 0.91227,-0.43977 1.18391,-0.85369 0.27164,-0.41393 0.49793,-1.0155 0.67902,-1.80455 0.14229,-0.56914 0.2459,-1.16401 0.31058,-1.7849 0.0776,-0.62089 0.11627,-1.33225 0.11627,-2.13424 0,-0.80198 -0.0387,-1.51334 -0.11627,-2.13423 -0.0647,-0.62089 -0.16829,-1.21628 -0.31058,-1.78542 -0.18109,-0.78905 -0.40738,-1.39062 -0.67902,-1.80454 -0.27164,-0.41393 -0.6665,-0.69178 -1.18391,-0.83406 -0.50447,-0.15522 -1.22202,-0.23306 -2.15336,-0.23306 z m 12.30571,0 c -0.9184,0 -1.63647,0.0778 -2.15387,0.23306 -0.51741,0.14228 -0.91175,0.42013 -1.18339,0.83406 -0.27164,0.41392 -0.49794,1.01549 -0.67903,1.80454 -0.12935,0.56914 -0.23297,1.16453 -0.31058,1.78542 -0.0776,0.62089 -0.11627,1.33225 -0.11627,2.13423 0,0.80199 0.0387,1.51335 0.11627,2.13424 0.0776,0.62089 0.18123,1.21576 0.31058,1.7849 0.18109,0.78905 0.40739,1.39062 0.67903,1.80455 0.27164,0.41392 0.66598,0.69847 1.18339,0.85369 0.5174,0.14229 1.23547,0.21342 2.15387,0.21342 0.9184,0 1.63647,-0.0711 2.15388,-0.21342 0.5174,-0.15522 0.91175,-0.43977 1.18339,-0.85369 0.27163,-0.41393 0.49793,-1.0155 0.67902,-1.80455 0.14229,-0.56914 0.2459,-1.16401 0.31058,-1.7849 0.0776,-0.62089 0.11627,-1.33225 0.11627,-2.13424 0,-0.80198 -0.0387,-1.51334 -0.11627,-2.13423 -0.0647,-0.62089 -0.16829,-1.21628 -0.31058,-1.78542 -0.18109,-0.78905 -0.40739,-1.39062 -0.67902,-1.80454 -0.27164,-0.41393 -0.66599,-0.69178 -1.18339,-0.83406 -0.50448,-0.15522 -1.22255,-0.23306 -2.15388,-0.23306 z m 12.30571,0 c -0.9184,0 -1.63646,0.0778 -2.15387,0.23306 -0.51741,0.14228 -0.91175,0.42013 -1.18339,0.83406 -0.27164,0.41392 -0.49794,1.01549 -0.67903,1.80454 -0.12935,0.56914 -0.23297,1.16453 -0.31058,1.78542 -0.0776,0.62089 -0.11627,1.33225 -0.11627,2.13423 0,0.80199 0.0387,1.51335 0.11627,2.13424 0.0776,0.62089 0.18123,1.21576 0.31058,1.7849 0.18109,0.78905 0.40739,1.39062 0.67903,1.80455 0.27164,0.41392 0.66598,0.69847 1.18339,0.85369 0.51741,0.14229 1.23547,0.21342 2.15387,0.21342 0.9184,0 1.63647,-0.0711 2.15387,-0.21342 0.51741,-0.15522 0.91176,-0.43977 1.18339,-0.85369 0.27164,-0.41393 0.49794,-1.0155 0.67903,-1.80455 0.14229,-0.56914 0.2459,-1.16401 0.31058,-1.7849 0.0776,-0.62089 0.11627,-1.33225 0.11627,-2.13424 0,-0.80198 -0.0387,-1.51334 -0.11627,-2.13423 -0.0647,-0.62089 -0.16829,-1.21628 -0.31058,-1.78542 -0.18109,-0.78905 -0.40739,-1.39062 -0.67903,-1.80454 -0.27163,-0.41393 -0.66598,-0.69178 -1.18339,-0.83406 -0.50447,-0.15522 -1.22254,-0.23306 -2.15387,-0.23306 z m -98.446187,1.43608 c 0.595018,0 1.054313,0.0516 1.377694,0.15503 0.323379,0.10348 0.569265,0.30401 0.737422,0.60152 0.181093,0.29751 0.329551,0.73722 0.445968,1.3193 0.10348,0.4786 0.174618,0.98326 0.213423,1.5136 0.05174,0.53034 0.07751,1.11903 0.07751,1.76578 0,0.64676 -0.02577,1.23493 -0.07751,1.76527 -0.0388,0.51741 -0.109943,1.02207 -0.213423,1.5136 -0.116417,0.58209 -0.264875,1.02179 -0.445968,1.3193 -0.168157,0.29751 -0.414043,0.49803 -0.737422,0.60152 -0.323381,0.10348 -0.782676,0.15554 -1.377694,0.15554 -0.582083,0 -1.04138,-0.0521 -1.377694,-0.15554 -0.323379,-0.10349 -0.569264,-0.30401 -0.737423,-0.60152 -0.168156,-0.29751 -0.316616,-0.73721 -0.445967,-1.3193 -0.09055,-0.49153 -0.161684,-0.99619 -0.213424,-1.5136 -0.05174,-0.53034 -0.07751,-1.11851 -0.07751,-1.76527 0,-0.64675 0.02577,-1.23544 0.07751,-1.76578 0.05174,-0.53034 0.122876,-1.035 0.213424,-1.5136 0.129351,-0.58208 0.277811,-1.02179 0.445967,-1.3193 0.168159,-0.29751 0.414044,-0.49804 0.737423,-0.60152 0.336314,-0.10348 0.795611,-0.15503 1.377694,-0.15503 z m 12.305709,0 c 0.595018,0 1.054314,0.0516 1.377693,0.15503 0.323381,0.10348 0.569266,0.30401 0.737423,0.60152 0.181091,0.29751 0.329551,0.73722 0.445968,1.3193 0.103482,0.4786 0.174618,0.98326 0.213423,1.5136 0.05174,0.53034 0.07803,1.11903 0.07803,1.76578 0,0.64676 -0.02629,1.23493 -0.07803,1.76527 -0.03881,0.51741 -0.109941,1.02207 -0.213423,1.5136 -0.116417,0.58209 -0.264877,1.02179 -0.445968,1.3193 -0.168157,0.29751 -0.414042,0.49803 -0.737423,0.60152 -0.323379,0.10348 -0.782675,0.15554 -1.377693,0.15554 -0.582084,0 -1.041379,-0.0521 -1.377694,-0.15554 -0.323379,-0.10349 -0.568749,-0.30401 -0.736906,-0.60152 -0.168157,-0.29751 -0.317131,-0.73721 -0.446484,-1.3193 -0.09055,-0.49153 -0.161684,-0.99619 -0.213424,-1.5136 -0.05174,-0.53034 -0.07751,-1.11851 -0.07751,-1.76527 0,-0.64675 0.02577,-1.23544 0.07751,-1.76578 0.05174,-0.53034 0.122878,-1.035 0.213424,-1.5136 0.129353,-0.58208 0.278327,-1.02179 0.446484,-1.3193 0.168157,-0.29751 0.413527,-0.49804 0.736906,-0.60152 0.336315,-0.10348 0.79561,-0.15503 1.377694,-0.15503 z m 24.611417,0 c 0.595018,0 1.054313,0.0516 1.377694,0.15503 0.323379,0.10348 0.569266,0.30401 0.737423,0.60152 0.181093,0.29751 0.330067,0.73722 0.446484,1.3193 0.10348,0.4786 0.174618,0.98326 0.213424,1.5136 0.05174,0.53034 0.07751,1.11903 0.07751,1.76578 0,0.64676 -0.02577,1.23493 -0.07751,1.76527 -0.03881,0.51741 -0.109944,1.02207 -0.213424,1.5136 -0.116417,0.58209 -0.265391,1.02179 -0.446484,1.3193 -0.168157,0.29751 -0.414044,0.49803 -0.737423,0.60152 -0.323381,0.10348 -0.782676,0.15554 -1.377694,0.15554 -0.582083,0 -1.040863,-0.0521 -1.377177,-0.15554 -0.323379,-0.10349 -0.569264,-0.30401 -0.737422,-0.60152 -0.168157,-0.29751 -0.317133,-0.73721 -0.446485,-1.3193 -0.09055,-0.49153 -0.161683,-0.99619 -0.213423,-1.5136 -0.05174,-0.53034 -0.07751,-1.11851 -0.07751,-1.76527 0,-0.64675 0.02577,-1.23544 0.07751,-1.76578 0.05174,-0.53034 0.122876,-1.035 0.213423,-1.5136 0.129352,-0.58208 0.278328,-1.02179 0.446485,-1.3193 0.168158,-0.29751 0.414043,-0.49804 0.737422,-0.60152 0.336314,-0.10348 0.795094,-0.15503 1.377177,-0.15503 z m 12.306221,0 c 0.59502,0 1.0538,0.0516 1.37718,0.15503 0.32338,0.10348 0.56927,0.30401 0.73742,0.60152 0.1811,0.29751 0.33007,0.73722 0.44649,1.3193 0.10348,0.4786 0.17462,0.98326 0.21342,1.5136 0.0517,0.53034 0.0775,1.11903 0.0775,1.76578 0,0.64676 -0.0258,1.23493 -0.0775,1.76527 -0.0388,0.51741 -0.10994,1.02207 -0.21342,1.5136 -0.11642,0.58209 -0.26539,1.02179 -0.44649,1.3193 -0.16815,0.29751 -0.41404,0.49803 -0.73742,0.60152 -0.32338,0.10348 -0.78216,0.15554 -1.37718,0.15554 -0.58208,0 -1.04137,-0.0521 -1.37769,-0.15554 -0.32338,-0.10349 -0.56926,-0.30401 -0.73742,-0.60152 -0.16816,-0.29751 -0.31713,-0.73721 -0.44649,-1.3193 -0.0905,-0.49153 -0.16168,-0.99619 -0.21342,-1.5136 -0.0517,-0.53034 -0.0775,-1.11851 -0.0775,-1.76527 0,-0.64675 0.0258,-1.23544 0.0775,-1.76578 0.0517,-0.53034 0.12288,-1.035 0.21342,-1.5136 0.12936,-0.58208 0.27833,-1.02179 0.44649,-1.3193 0.16816,-0.29751 0.41404,-0.49804 0.73742,-0.60152 0.33632,-0.10348 0.79561,-0.15503 1.37769,-0.15503 z m 24.61142,0 c 0.59502,0 1.05432,0.0516 1.3777,0.15503 0.32338,0.10348 0.56875,0.30401 0.7369,0.60152 0.1811,0.29751 0.33007,0.73722 0.44649,1.3193 0.10348,0.4786 0.17461,0.98326 0.21342,1.5136 0.0517,0.53034 0.0775,1.11903 0.0775,1.76578 0,0.64676 -0.0258,1.23493 -0.0775,1.76527 -0.0388,0.51741 -0.10994,1.02207 -0.21342,1.5136 -0.11642,0.58209 -0.26539,1.02179 -0.44649,1.3193 -0.16815,0.29751 -0.41352,0.49803 -0.7369,0.60152 -0.32338,0.10348 -0.78268,0.15554 -1.3777,0.15554 -0.58208,0 -1.04138,-0.0521 -1.37769,-0.15554 -0.32338,-0.10349 -0.56927,-0.30401 -0.73742,-0.60152 -0.16816,-0.29751 -0.31662,-0.73721 -0.44597,-1.3193 -0.0905,-0.49153 -0.16168,-0.99619 -0.21343,-1.5136 -0.0517,-0.53034 -0.078,-1.11851 -0.078,-1.76527 0,-0.64675 0.0263,-1.23544 0.078,-1.76578 0.0517,-0.53034 0.12288,-1.035 0.21343,-1.5136 0.12935,-0.58208 0.27781,-1.02179 0.44597,-1.3193 0.16815,-0.29751 0.41404,-0.49804 0.73742,-0.60152 0.33631,-0.10348 0.79561,-0.15503 1.37769,-0.15503 z m 12.30571,0 c 0.59502,0 1.05431,0.0516 1.3777,0.15503 0.32337,0.10348 0.56874,0.30401 0.7369,0.60152 0.18109,0.29751 0.33007,0.73722 0.44649,1.3193 0.10348,0.4786 0.17461,0.98326 0.21342,1.5136 0.0517,0.53034 0.0775,1.11903 0.0775,1.76578 0,0.64676 -0.0258,1.23493 -0.0775,1.76527 -0.0388,0.51741 -0.10994,1.02207 -0.21342,1.5136 -0.11642,0.58209 -0.2654,1.02179 -0.44649,1.3193 -0.16816,0.29751 -0.41353,0.49803 -0.7369,0.60152 -0.32339,0.10348 -0.78268,0.15554 -1.3777,0.15554 -0.58208,0 -1.04138,-0.0521 -1.37769,-0.15554 -0.32338,-0.10349 -0.56927,-0.30401 -0.73743,-0.60152 -0.16815,-0.29751 -0.31661,-0.73721 -0.44596,-1.3193 -0.0906,-0.49153 -0.16169,-0.99619 -0.21343,-1.5136 -0.0517,-0.53034 -0.0775,-1.11851 -0.0775,-1.76527 0,-0.64675 0.0258,-1.23544 0.0775,-1.76578 0.0517,-0.53034 0.12288,-1.035 0.21343,-1.5136 0.12935,-0.58208 0.27781,-1.02179 0.44596,-1.3193 0.16816,-0.29751 0.41405,-0.49804 0.73743,-0.60152 0.33631,-0.10348 0.79561,-0.15503 1.37769,-0.15503 z m 12.30571,0 c 0.59502,0 1.05431,0.0516 1.37769,0.15503 0.32338,0.10348 0.56927,0.30401 0.73743,0.60152 0.18109,0.29751 0.32955,0.73722 0.44596,1.3193 0.10348,0.4786 0.17462,0.98326 0.21343,1.5136 0.0517,0.53034 0.0775,1.11903 0.0775,1.76578 0,0.64676 -0.0258,1.23493 -0.0775,1.76527 -0.0388,0.51741 -0.10995,1.02207 -0.21343,1.5136 -0.11641,0.58209 -0.26487,1.02179 -0.44596,1.3193 -0.16816,0.29751 -0.41405,0.49803 -0.73743,0.60152 -0.32338,0.10348 -0.78267,0.15554 -1.37769,0.15554 -0.58208,0 -1.04138,-0.0521 -1.37769,-0.15554 -0.32338,-0.10349 -0.56927,-0.30401 -0.73743,-0.60152 -0.16815,-0.29751 -0.31661,-0.73721 -0.44596,-1.3193 -0.0906,-0.49153 -0.16169,-0.99619 -0.21343,-1.5136 -0.0517,-0.53034 -0.0775,-1.11851 -0.0775,-1.76527 0,-0.64675 0.0258,-1.23544 0.0775,-1.76578 0.0517,-0.53034 0.12288,-1.035 0.21343,-1.5136 0.12935,-0.58208 0.27781,-1.02179 0.44596,-1.3193 0.16816,-0.29751 0.41405,-0.49804 0.73743,-0.60152 0.33631,-0.10348 0.79561,-0.15503 1.37769,-0.15503 z m -98.446187,3.97754 c -0.40099,0 -0.665949,0.0907 -0.7953,0.27182 -0.116417,0.18109 -0.174667,0.57544 -0.174667,1.18339 0,0.51741 0.05155,0.89268 0.15503,1.12551 0.103482,0.2199 0.375141,0.3297 0.814937,0.3297 0.439797,0 0.711457,-0.1098 0.814937,-0.3297 0.103482,-0.23283 0.155029,-0.6081 0.155029,-1.12551 0,-0.53034 -0.05155,-0.90562 -0.155029,-1.12551 -0.10348,-0.2199 -0.37514,-0.3297 -0.814937,-0.3297 z m 12.305709,0 c -0.40099,0 -0.665948,0.0907 -0.795301,0.27182 -0.116416,0.18109 -0.174666,0.57544 -0.174666,1.18339 0,0.51741 0.05155,0.89268 0.155029,1.12551 0.103482,0.2199 0.375142,0.3297 0.814938,0.3297 0.439795,0 0.711455,-0.1098 0.814937,-0.3297 0.10348,-0.23283 0.155029,-0.6081 0.155029,-1.12551 0,-0.53034 -0.05155,-0.90562 -0.155029,-1.12551 -0.103482,-0.2199 -0.375142,-0.3297 -0.814937,-0.3297 z m 24.611417,0 c -0.40099,0 -0.665949,0.0907 -0.7953,0.27182 -0.116417,0.18109 -0.174666,0.57544 -0.174666,1.18339 0,0.51741 0.05155,0.89268 0.155029,1.12551 0.103482,0.2199 0.375142,0.3297 0.814937,0.3297 0.439796,0 0.711456,-0.1098 0.814938,-0.3297 0.103482,-0.23283 0.155546,-0.6081 0.155546,-1.12551 0,-0.53034 -0.05206,-0.90562 -0.155546,-1.12551 -0.103482,-0.2199 -0.375142,-0.3297 -0.814938,-0.3297 z m 12.306221,0 c -0.40099,0 -0.66646,0.0907 -0.79581,0.27182 -0.11642,0.18109 -0.17467,0.57544 -0.17467,1.18339 0,0.51741 0.0521,0.89268 0.15555,1.12551 0.10348,0.2199 0.37514,0.3297 0.81493,0.3297 0.4398,0 0.71094,-0.1098 0.81443,-0.3297 0.10348,-0.23283 0.15554,-0.6081 0.15554,-1.12551 0,-0.53034 -0.0521,-0.90562 -0.15554,-1.12551 -0.10349,-0.2199 -0.37463,-0.3297 -0.81443,-0.3297 z m 24.61142,0 c -0.40099,0 -0.66646,0.0907 -0.79581,0.27182 -0.11642,0.18109 -0.17467,0.57544 -0.17467,1.18339 0,0.51741 0.0521,0.89268 0.15555,1.12551 0.10348,0.2199 0.37514,0.3297 0.81493,0.3297 0.4398,0 0.71146,-0.1098 0.81494,-0.3297 0.10348,-0.23283 0.15503,-0.6081 0.15503,-1.12551 0,-0.53034 -0.0515,-0.90562 -0.15503,-1.12551 -0.10348,-0.2199 -0.37514,-0.3297 -0.81494,-0.3297 z m 12.30571,0 c -0.40099,0 -0.66646,0.0907 -0.79582,0.27182 -0.11641,0.18109 -0.17415,0.57544 -0.17415,1.18339 0,0.51741 0.0515,0.89268 0.15503,1.12551 0.10349,0.2199 0.37515,0.3297 0.81494,0.3297 0.4398,0 0.71146,-0.1098 0.81494,-0.3297 0.10348,-0.23283 0.15503,-0.6081 0.15503,-1.12551 0,-0.53034 -0.0515,-0.90562 -0.15503,-1.12551 -0.10348,-0.2199 -0.37514,-0.3297 -0.81494,-0.3297 z m 12.30571,0 c -0.40099,0 -0.66595,0.0907 -0.7953,0.27182 -0.11642,0.18109 -0.17467,0.57544 -0.17467,1.18339 0,0.51741 0.0516,0.89268 0.15503,1.12551 0.10348,0.2199 0.37514,0.3297 0.81494,0.3297 0.4398,0 0.71146,-0.1098 0.81494,-0.3297 0.10348,-0.23283 0.15503,-0.6081 0.15503,-1.12551 0,-0.53034 -0.0515,-0.90562 -0.15503,-1.12551 -0.10348,-0.2199 -0.37514,-0.3297 -0.81494,-0.3297 z m -54.049931,11.48405 v 15.58355 H 108.4452 v -15.58355 z m -12.200805,0.10336 v 15.58354 h 10.369393 v -15.58354 z m -24.964368,0.36173 v 15.58355 h 10.369393 v -15.58355 z m -7.735445,1.00097 -3.938778,2.83239 v 1.88205 l 4.210079,-3.00705 v 11.48612 h 1.55236 v -13.19351 z m 24.611418,0 -3.938778,2.83239 v 1.88205 l 4.210596,-3.00705 v 11.48612 h 1.551843 v -13.19351 z m 36.917121,0 -3.93877,2.83239 v 1.88205 l 4.21059,-3.00705 v 11.48612 h 1.55236 v -13.19351 z m 12.30623,0 -3.93878,2.83239 v 1.88205 l 4.21008,-3.00705 v 11.48612 h 1.55236 v -13.19351 z m 12.30571,0 -3.93878,2.83239 v 1.88205 l 4.21008,-3.00705 v 11.48612 h 1.55236 v -13.19351 z m 12.30571,0 -3.93878,2.83239 v 1.88205 l 4.21008,-3.00705 v 11.48612 h 1.55236 v -13.19351 z"
         transform="translate(-5.3874101,5.9926839)" />
    </g>
  </g>
</svg>
